<svg width="500" height="500" viewBox="0 0 500 500" fill="none" xmlns="http://www.w3.org/2000/svg">
<path d="M301.948 96.3757C310.28 88.0436 310.28 74.5345 301.948 66.2024C293.616 57.8703 280.107 57.8703 271.775 66.2024L286.862 81.2891L301.948 96.3757ZM118.152 249.998L103.066 234.912V265.085L118.152 249.998ZM271.775 433.794C280.107 442.127 293.616 442.127 301.948 433.794C310.28 425.462 310.28 411.953 301.948 403.621L286.862 418.708L271.775 433.794ZM286.862 81.2891L271.775 66.2024L103.066 234.912L118.152 249.998L133.239 265.085L301.948 96.3757L286.862 81.2891ZM118.152 249.998L103.066 265.085L271.775 433.794L286.862 418.708L301.948 403.621L133.239 234.912L118.152 249.998Z" fill="black"/>
<path d="M308.198 176.348L323.285 161.261L293.111 161.261L308.198 176.348ZM381.849 249.999L396.936 265.085V234.912L381.849 249.999ZM308.198 323.65L293.111 338.736L323.285 338.736L308.198 323.65ZM234.547 249.999L219.46 234.912V265.085L234.547 249.999ZM308.198 176.348L293.111 191.434L366.762 265.085L381.849 249.999L396.936 234.912L323.285 161.261L308.198 176.348ZM381.849 249.999L366.762 234.912L293.111 308.563L308.198 323.65L323.285 338.736L396.936 265.085L381.849 249.999ZM234.547 249.999L249.634 265.085L323.285 191.434L308.198 176.348L293.111 161.261L219.46 234.912L234.547 249.999ZM308.198 323.65L323.285 308.563L249.634 234.912L234.547 249.999L219.46 265.085L293.111 338.736L308.198 323.65Z" fill="#5AA468"/>
</svg>
